# xmcd
#
# Track frame offsets: 
#        150
#        40264
#        78833
#        120579
#
# Disc length: 2417 seconds
#
# Revision: 1
# Processed by: cddbd v1.5PL3 Copyright (c) Steve Scherf et al.
# Submitted via: ExactAudioCopy v0.95a4
#
DISCID=25096f04
DTITLE=Nojazz - Jazz A Fip Live
DYEAR=2002
DGENRE=Electro Jazz
TTITLE0=Candela
TTITLE1=Medina
TTITLE2=Jungle Out
TTITLE3=Video nojazz on tour
EXTD=YEAR: 2002
EXTT0=
EXTT1=
EXTT2=
EXTT3=
PLAYORDER=
